   <svg xmlns="http://www.w3.org/2000/svg" xmlnsXlink="http://www.w3.org/1999/xlink"
            width="100" zoomAndPan="magnify" viewBox="0 0 375 374.999991"
            height="100" preserveAspectRatio="xMidYMid meet"
            version="1.0"><defs><g /><clipPath id="d56cd17440">
              <path d="M 139.347656 106.425781 L 235.347656 106.425781 L 235.347656 216.675781 L 139.347656 216.675781 Z M 139.347656 106.425781 " clip-rule="nonzero" /></clipPath></defs><g fill="#9cdaff" fill-opacity="1"><g transform="translate(82.834512, 263.813186)"><g><path d="M 23.519531 -22.398438 L 18.140625 -22.398438 C 17.527344 -22.398438 16.964844 -22.175781 16.519531 -21.726562 L 8.230469 -13.4375 L 5.597656 -13.4375 L 5.597656 -22.398438 L 1.121094 -22.398438 L 1.121094 0 L 5.597656 0 L 5.597656 -8.960938 L 8.230469 -8.960938 L 16.519531 -0.671875 C 16.964844 -0.222656 17.527344 0 18.140625 0 L 23.519531 0 L 23.519531 -4.480469 L 19.039062 -4.480469 L 12.320312 -11.199219 L 19.039062 -17.917969 L 23.519531 -17.917969 Z M 23.519531 -22.398438 " /></g></g></g><g fill="#9cdaff" fill-opacity="1"><g transform="translate(109.571164, 263.813186)"><g><path d="M 19.039062 0 C 21.53125 0 23.519531 -2.042969 23.519531 -4.480469 L 23.519531 -17.917969 C 23.519531 -20.382812 21.503906 -22.398438 19.039062 -22.398438 L 5.597656 -22.398438 C 3.136719 -22.398438 1.121094 -20.382812 1.121094 -17.917969 L 1.121094 -4.480469 C 1.121094 -2.015625 3.136719 0 5.597656 0 Z M 5.597656 -17.917969 L 19.039062 -17.917969 L 19.039062 -4.480469 L 5.597656 -4.480469 Z M 5.597656 -17.917969 " /></g></g></g><g fill="#9cdaff" fill-opacity="1"><g transform="translate(136.307816, 263.813186)"><g><path d="M 23.519531 0 L 23.519531 -4.480469 L 5.597656 -4.480469 L 5.597656 -22.398438 L 1.121094 -22.398438 L 1.121094 -4.480469 C 1.121094 -2.015625 3.136719 0 5.597656 0 Z M 23.519531 0 " /></g></g></g><g fill="#9cdaff" fill-opacity="1"><g transform="translate(163.044468, 263.813186)"><g><path d="M 23.519531 0 L 23.519531 -4.480469 L 14.558594 -4.480469 L 14.558594 -17.917969 L 23.519531 -17.917969 L 23.519531 -22.398438 L 1.121094 -22.398438 L 1.121094 -17.917969 L 10.078125 -17.917969 L 10.078125 -4.480469 L 1.121094 -4.480469 L 1.121094 0 Z M 23.519531 0 " /></g></g></g><g fill="#9cdaff" fill-opacity="1"><g transform="translate(189.781121, 263.813186)"><g><path d="M 23.519531 -22.398438 L 5.597656 -22.398438 C 3.136719 -22.398438 1.121094 -20.382812 1.121094 -17.917969 L 1.121094 0 L 5.597656 0 L 5.597656 -8.960938 L 23.519531 -8.960938 L 23.519531 -13.4375 L 5.597656 -13.4375 L 5.597656 -17.917969 L 23.519531 -17.917969 Z M 23.519531 -22.398438 " /></g></g></g><g fill="#9cdaff" fill-opacity="1"><g transform="translate(216.517768, 263.813186)"><g><path d="M 23.519531 0 L 23.519531 -4.480469 L 5.597656 -4.480469 L 5.597656 -22.398438 L 1.121094 -22.398438 L 1.121094 -4.480469 C 1.121094 -2.015625 3.136719 0 5.597656 0 Z M 23.519531 0 " /></g></g></g><g fill="#9cdaff" fill-opacity="1"><g transform="translate(243.254415, 263.813186)"><g><path d="M 19.039062 0 C 21.503906 0 23.519531 -2.015625 23.519531 -4.480469 L 23.519531 -22.398438 L 19.039062 -22.398438 L 19.039062 -4.480469 L 5.597656 -4.480469 L 5.597656 -22.398438 L 1.121094 -22.398438 L 1.121094 -4.480469 C 1.121094 -2.015625 3.136719 0 5.597656 0 Z M 19.039062 0 " /></g></g></g><g fill="#9cdaff" fill-opacity="1"><g transform="translate(269.991062, 263.813186)"><g><path d="M 23.519531 -22.398438 L 19.039062 -22.398438 L 19.039062 -20.15625 L 12.320312 -13.4375 L 5.597656 -20.15625 L 5.597656 -22.398438 L 1.121094 -22.398438 L 1.121094 -19.261719 C 1.121094 -18.644531 1.316406 -18.113281 1.792969 -17.636719 L 8.230469 -11.199219 L 1.792969 -4.757812 C 1.34375 -4.3125 1.121094 -3.75 1.121094 -3.136719 L 1.121094 0 L 5.597656 0 L 5.597656 -2.238281 L 12.320312 -8.960938 L 19.039062 -2.238281 L 19.039062 0 L 23.519531 0 L 23.519531 -3.136719 C 23.519531 -3.75 23.292969 -4.3125 22.847656 -4.757812 L 16.40625 -11.199219 L 22.847656 -17.636719 C 23.320312 -18.113281 23.519531 -18.644531 23.519531 -19.261719 Z M 23.519531 -22.398438 " /></g></g></g><path stroke-linecap="butt" transform="matrix(0.75, 0, 0, 0.75, 80.612694, 235.575745)" fill="none" stroke-linejoin="miter" d="M 32.67266 6.133382 L 25.500784 6.133382 C 24.677867 6.133382 23.933076 6.435465 23.339326 7.034423 L 12.287242 18.081299 L 8.776825 18.081299 L 8.776825 6.133382 L 2.808074 6.133382 L 2.808074 35.997967 L 8.776825 35.997967 L 8.776825 24.050049 L 12.287242 24.050049 L 23.339326 35.107342 C 23.933076 35.701092 24.677867 35.997967 25.500784 35.997967 L 32.67266 35.997967 L 32.67266 30.029217 L 26.693493 30.029217 L 17.735159 21.070883 L 26.693493 12.112549 L 32.67266 12.112549 Z M 62.344537 35.997967 C 65.667453 35.997967 68.323704 33.274008 68.323704 30.029217 L 68.323704 12.112549 C 68.323704 8.820882 65.630995 6.133382 62.344537 6.133382 L 44.427869 6.133382 C 41.146618 6.133382 38.45391 8.820882 38.45391 12.112549 L 38.45391 30.029217 C 38.45391 33.310467 41.146618 35.997967 44.427869 35.997967 Z M 44.427869 12.112549 L 62.344537 12.112549 L 62.344537 30.029217 L 44.427869 30.029217 Z M 103.969539 35.997967 L 103.969539 30.029217 L 80.073704 30.029217 L 80.073704 6.133382 L 74.104954 6.133382 L 74.104954 30.029217 C 74.104954 33.310467 76.792454 35.997967 80.073704 35.997967 Z M 139.620583 35.997967 L 139.620583 30.029217 L 127.672666 30.029217 L 127.672666 12.112549 L 139.620583 12.112549 L 139.620583 6.133382 L 109.755998 6.133382 L 109.755998 12.112549 L 121.703915 12.112549 L 121.703915 30.029217 L 109.755998 30.029217 L 109.755998 35.997967 Z M 175.266419 6.133382 L 151.370584 6.133382 C 148.089334 6.133382 145.401834 8.820882 145.401834 12.112549 L 145.401834 35.997967 L 151.370584 35.997967 L 151.370584 24.050049 L 175.266419 24.050049 L 175.266419 18.081299 L 151.370584 18.081299 L 151.370584 12.112549 L 175.266419 12.112549 Z M 210.917463 35.997967 L 210.917463 30.029217 L 187.021628 30.029217 L 187.021628 6.133382 L 181.052878 6.133382 L 181.052878 30.029217 C 181.052878 33.310467 183.740378 35.997967 187.021628 35.997967 Z M 240.58934 35.997967 C 243.875798 35.997967 246.568507 33.310467 246.568507 30.029217 L 246.568507 6.133382 L 240.58934 6.133382 L 240.58934 30.029217 L 222.667464 30.029217 L 222.667464 6.133382 L 216.698713 6.133382 L 216.698713 30.029217 C 216.698713 33.310467 219.391422 35.997967 222.667464 35.997967 Z M 282.214343 6.133382 L 276.235176 6.133382 L 276.235176 9.122965 L 267.276842 18.081299 L 258.318508 9.122965 L 258.318508 6.133382 L 252.349757 6.133382 L 252.349757 10.315674 C 252.349757 11.13859 252.615382 11.846924 253.240382 12.487549 L 261.828925 21.070883 L 253.240382 29.654217 C 252.651841 30.247967 252.349757 30.997967 252.349757 31.815675 L 252.349757 35.997967 L 258.318508 35.997967 L 258.318508 33.008383 L 267.276842 24.050049 L 276.235176 33.008383 L 276.235176 35.997967 L 282.214343 35.997967 L 282.214343 31.815675 C 282.214343 30.997967 281.912259 30.247967 281.313301 29.654217 L 272.729967 21.070883 L 281.313301 12.487549 C 281.948718 11.846924 282.214343 11.13859 282.214343 10.315674 Z M 282.214343 6.133382 " stroke="#38b6ff" stroke-width="1.400006" stroke-opacity="1" stroke-miterlimit="4" /><path fill="#463f57" d="M 218.464844 143.453125 C 218.269531 143.09375 218.015625 142.738281 217.480469 142.464844 L 209.878906 138.046875 C 209.773438 137.988281 209.664062 137.941406 209.542969 137.910156 C 209.503906 137.902344 209.46875 137.902344 209.425781 137.894531 C 209.347656 137.878906 209.269531 137.867188 209.191406 137.867188 L 209.175781 137.867188 L 209.175781 137.871094 C 208.949219 137.875 208.730469 137.933594 208.535156 138.046875 L 191.429688 147.988281 L 191.414062 147.957031 L 190.035156 148.761719 C 188.371094 149.726562 186.324219 149.726562 184.65625 148.761719 L 177.179688 144.417969 C 176.765625 144.175781 176.511719 143.730469 176.511719 143.246094 C 176.511719 142.761719 176.765625 142.316406 177.179688 142.074219 L 184.65625 137.730469 C 186.324219 136.765625 188.371094 136.765625 190.035156 137.730469 L 191.835938 138.777344 C 192.25 139.019531 192.761719 139.019531 193.175781 138.777344 L 200.140625 134.730469 C 200.558594 134.488281 200.8125 134.042969 200.8125 133.558594 C 200.8125 133.078125 200.558594 132.628906 200.140625 132.386719 L 190.035156 126.515625 C 188.371094 125.546875 186.324219 125.546875 184.65625 126.515625 L 159.898438 140.902344 C 158.105469 141.945312 158.105469 144.546875 159.898438 145.585938 L 184.65625 159.976562 C 186.324219 160.941406 188.371094 160.941406 190.035156 159.976562 L 209.175781 148.851562 L 209.175781 174.191406 L 203.023438 177.773438 L 190.035156 185.347656 C 189.621094 185.585938 189.183594 185.765625 188.726562 185.890625 C 187.355469 186.257812 185.890625 186.058594 184.65625 185.347656 L 166.859375 175.003906 C 166.027344 174.523438 165.515625 173.628906 165.515625 172.660156 L 165.515625 157.890625 C 165.515625 157.410156 165.257812 156.960938 164.84375 156.722656 L 157.882812 152.671875 C 157.464844 152.429688 156.953125 152.429688 156.539062 152.671875 C 156.121094 152.914062 155.867188 153.363281 155.867188 153.847656 L 155.867188 178.269531 C 155.867188 179.234375 156.378906 180.125 157.210938 180.613281 L 184.65625 196.5625 C 185.464844 197.03125 186.378906 197.277344 187.308594 197.285156 L 187.328125 197.285156 C 187.457031 197.285156 187.589844 197.269531 187.722656 197.261719 C 187.824219 197.253906 187.921875 197.253906 188.023438 197.242188 C 188.164062 197.222656 188.300781 197.191406 188.4375 197.164062 C 188.53125 197.140625 188.625 197.128906 188.714844 197.105469 C 188.863281 197.070312 189.007812 197.011719 189.148438 196.960938 C 189.234375 196.929688 189.3125 196.910156 189.386719 196.878906 C 189.609375 196.789062 189.824219 196.683594 190.03125 196.5625 L 213.710938 182.800781 L 217.464844 180.660156 C 218.304688 180.179688 218.828125 179.28125 218.828125 178.308594 L 218.828125 144.804688 C 218.828125 144.324219 218.695312 143.855469 218.464844 143.453125 " fill-opacity="1" fill-rule="nonzero" /><g clip-path="url(#d56cd17440)"><path fill="#463f57" d="M 189.96875 118.421875 C 189.167969 117.960938 188.269531 117.710938 187.347656 117.703125 C 186.425781 117.710938 185.523438 117.960938 184.726562 118.421875 L 151.652344 137.644531 C 149.992188 138.605469 148.96875 140.386719 148.96875 142.316406 L 148.96875 180.757812 C 148.96875 182.6875 149.992188 184.46875 151.652344 185.429688 L 184.726562 204.648438 C 185.535156 205.121094 186.449219 205.371094 187.382812 205.375 C 188.316406 205.371094 189.234375 205.121094 190.046875 204.652344 L 222.976562 185.515625 C 224.632812 184.554688 225.65625 182.773438 225.65625 180.84375 L 225.65625 169.738281 C 225.652344 169.253906 225.910156 168.808594 226.324219 168.566406 L 233.335938 164.496094 C 233.75 164.253906 234.261719 164.253906 234.675781 164.496094 C 235.089844 164.734375 235.347656 165.179688 235.347656 165.664062 L 235.347656 186.351562 C 235.34375 187.234375 235.125 188.101562 234.710938 188.878906 C 234.609375 189.390625 234.054688 189.988281 233.277344 190.605469 C 233.261719 190.621094 233.238281 190.636719 233.21875 190.652344 C 231.238281 192.203125 227.960938 193.800781 227.382812 194.140625 L 190.046875 215.835938 C 189.210938 216.320312 188.257812 216.570312 187.292969 216.558594 L 187.253906 216.558594 L 187.253906 216.554688 C 186.363281 216.53125 185.492188 216.28125 184.726562 215.835938 L 142.027344 191.023438 C 140.367188 190.0625 139.347656 188.28125 139.347656 186.351562 L 139.347656 136.726562 C 139.347656 135.859375 139.457031 134.976562 139.832031 134.230469 C 139.886719 134.035156 140.402344 133.082031 141.46875 132.300781 C 141.871094 132.027344 142.582031 131.660156 143.246094 131.273438 L 184.605469 107.242188 C 185.4375 106.757812 186.386719 106.507812 187.347656 106.519531 C 188.308594 106.507812 189.253906 106.757812 190.089844 107.242188 L 228.25 129.414062 C 228.339844 129.46875 228.40625 129.53125 228.480469 129.59375 L 228.964844 129.871094 C 230.261719 130.5625 232.292969 131.617188 233.398438 132.460938 L 233.488281 132.53125 C 233.5 132.542969 233.515625 132.550781 233.53125 132.5625 C 233.570312 132.59375 233.59375 132.628906 233.632812 132.660156 C 234.039062 133.003906 234.382812 133.402344 234.648438 133.851562 C 234.65625 133.855469 234.660156 133.863281 234.667969 133.871094 L 234.664062 133.871094 C 235.109375 134.621094 235.347656 135.480469 235.347656 136.351562 L 235.347656 154.523438 C 235.347656 155.003906 235.089844 155.449219 234.675781 155.691406 L 227.664062 159.769531 C 227.25 160.007812 226.738281 160.007812 226.324219 159.769531 C 225.90625 159.527344 225.652344 159.082031 225.652344 158.597656 L 225.652344 142.210938 C 225.652344 140.28125 224.628906 138.5 222.96875 137.535156 L 189.96875 118.421875 L 189.96875 118.425781 Z M 189.96875 118.421875 " fill-opacity="1" fill-rule="nonzero" /></g></svg>